<?xml version="1.0" encoding="UTF-8"?>
<svg width="175" height="36" viewBox="0 0 175 36" fill="none" xmlns="http://www.w3.org/2000/svg">
<g clip-path="url(#clip0_1131_47629)">
<path d="M82.578 0.798858C80.0903 1.04179 75.9426 1.57903 70.8323 2.72826V0.602647H61.7092V5.2136C60.2445 5.68544 58.7472 6.19933 57.222 6.76927V1.50428C53.6369 0.49987 49.7961 0 45.9087 0C36.0416 0 32.0008 3.05528 32.0008 10.4179C32.0008 14.4402 33.5864 16.79 35.8091 18.2616C32.3356 20.8404 28.9737 23.7976 25.8303 27.1799L22.5289 21.5832C26.8161 20.3826 28.8574 17.1264 28.8574 11.6185C28.8621 3.85881 25.0724 0.602647 15.9492 0.602647H0V34.2575H6.2774C7.65378 34.2575 8.76976 33.1363 8.76976 31.7534V22.6904H13.7545L20.083 34.2575H30.0013C30.0013 34.2575 45.1926 10.7355 82.6478 1.20529C82.8989 1.13989 82.8338 0.770828 82.578 0.794186M14.8565 15.8744H8.77441V7.41396H14.8565C18.4463 7.41396 19.8924 8.61459 19.8924 11.6232C19.8924 14.6317 18.4463 15.8791 14.8565 15.8791M44.1185 12.8611C42.4399 12.3753 41.3239 11.6745 41.3239 10.2684C41.3239 7.91383 42.8677 7.0122 46.6062 7.0122C49.2148 7.0122 51.7955 7.31119 54.4134 7.87179C51.0376 9.25461 47.5687 10.9037 44.1185 12.8611" fill="#0085C8"/>
<path d="M57.292 17.9536C56.3063 16.6922 54.9996 15.8279 53.5628 15.1973C50.5171 17.2154 47.8108 19.2523 45.4301 21.2284C47.0994 21.5928 48.4851 22.0179 49.2523 22.7934C49.6662 23.2092 49.8987 23.7278 49.8987 24.3911C49.8987 26.8952 48.3037 27.8482 44.3653 27.8482C43.691 27.8482 43.0168 27.8295 42.3425 27.7921C41.1289 27.7267 39.9153 27.6053 38.7016 27.4231C36.4325 29.7542 34.7027 31.8144 33.4658 33.4028C34.0843 33.5663 34.712 33.7158 35.3444 33.8513C38.497 34.5287 41.7752 34.8557 45.1139 34.8557C55.0833 34.8557 59.1706 31.749 59.1706 24.237C59.1706 21.434 58.4452 19.4205 57.292 17.9489" fill="#0085C8"/>
<path d="M70.8321 27.2456V6.03613C67.5679 7.39092 64.5315 8.84382 61.709 10.3481V34.2578H82.643C84.0193 34.2578 85.1353 33.1366 85.1353 31.7538V27.2503H70.8275L70.8321 27.2456Z" fill="#0085C8"/>
<path d="M38.7016 27.4226C36.4325 29.7538 34.7027 31.814 33.4658 33.4024C34.0843 33.5659 34.712 33.7154 35.3444 33.8509C37.6461 31.6645 39.9897 29.6464 42.3425 27.787C41.1289 27.7216 39.9153 27.6002 38.7016 27.418" fill="#2A6AB2"/>
<path d="M53.5624 15.1973C50.5167 17.2154 47.8105 19.2523 45.4297 21.2284C47.099 21.5928 48.4847 22.0179 49.2519 22.7934C51.9721 20.9902 54.6691 19.3831 57.2917 17.9536C56.3059 16.6922 54.9992 15.8279 53.5624 15.1973" fill="#2A6AB2"/>
<path d="M70.8321 6.03613C67.5679 7.39559 64.5315 8.84382 61.709 10.3481V15.6738C64.95 14.0901 68.0282 12.782 70.8321 11.7076V6.03613Z" fill="#2A6AB2"/>
<path d="M95.5001 16.6963C95.5605 16.6963 95.6024 16.7337 95.621 16.7991L97.8111 23.587C97.8251 23.6337 97.7925 23.6711 97.7414 23.6711H97.1369C97.0764 23.6711 97.0346 23.6291 97.016 23.5683L96.3603 21.5829H93.7099L93.0542 23.5683C93.0356 23.6291 92.9938 23.6711 92.9333 23.6711H92.3288C92.2777 23.6711 92.2451 23.6384 92.2591 23.587L94.4492 16.7991C94.4678 16.7383 94.505 16.701 94.5701 16.6963H95.5001ZM94.2028 19.9525L93.8912 20.9008H96.179L95.8674 19.9525L95.0537 17.3643H95.0119L94.2028 19.9525Z" fill="#676767"/>
<path d="M105.27 18.6865C105.335 18.6865 105.368 18.7332 105.349 18.794L103.912 23.5824C103.894 23.6338 103.847 23.6665 103.796 23.6665H103.099C103.047 23.6665 103.001 23.6338 102.982 23.5824L102.554 22.1436L101.815 19.4667H101.764L101.029 22.1436L100.597 23.5824C100.578 23.6338 100.536 23.6665 100.481 23.6665H99.7878C99.7366 23.6665 99.6855 23.6338 99.6715 23.5824L98.2347 18.794C98.2161 18.7332 98.2486 18.6865 98.3137 18.6865H98.8857C98.9368 18.6865 98.9833 18.7192 99.0019 18.7706L99.6064 20.8542L100.169 22.9845H100.202L100.76 20.8542L101.355 18.7706C101.369 18.7192 101.415 18.6865 101.471 18.6865H102.122C102.173 18.6865 102.215 18.7192 102.238 18.7706L102.838 20.8542L103.396 22.9845H103.429L103.982 20.8542L104.586 18.7706C104.605 18.7192 104.647 18.6865 104.703 18.6865H105.275H105.27Z" fill="#676767"/>
<path d="M108.227 18.5605C109.357 18.5605 109.952 19.1071 109.961 20.4386V23.592C109.961 23.6433 109.929 23.676 109.877 23.676H109.361C109.319 23.676 109.292 23.648 109.282 23.606L109.25 23.022C108.822 23.5032 108.199 23.8068 107.641 23.8068H107.585C106.622 23.8068 106.046 23.2135 106.046 22.3867V22.3213C106.046 21.2701 106.762 20.7796 108.278 20.7049L109.217 20.6628V20.4573C109.217 19.5836 108.938 19.1725 108.078 19.1725H108.045C107.552 19.1725 107.008 19.3407 106.511 19.5509C106.474 19.565 106.427 19.5463 106.427 19.4949V19.0604C106.427 18.9903 106.455 18.9483 106.506 18.9296C106.92 18.7427 107.594 18.5652 108.166 18.5652H108.217L108.227 18.5605ZM108.273 21.1814C107.255 21.2141 106.79 21.5691 106.79 22.2372V22.2792C106.79 22.8398 107.204 23.2042 107.85 23.2042H107.892C108.334 23.2042 108.775 22.9986 109.222 22.4941V21.1533L108.273 21.1814V21.1814Z" fill="#676767"/>
<path d="M113.663 18.5603C113.751 18.5603 113.877 18.5697 113.933 18.579C113.993 18.5884 114.012 18.6304 114.012 18.6818V19.1957C114.012 19.2564 113.965 19.2844 113.891 19.2751C113.826 19.2658 113.672 19.2564 113.57 19.2564H113.528C113.058 19.2564 112.561 19.504 112.077 20.0319V23.5871C112.077 23.6385 112.045 23.6712 111.994 23.6712H111.422C111.37 23.6712 111.338 23.6385 111.338 23.5871V18.7706C111.338 18.7192 111.37 18.6865 111.422 18.6865H111.938C111.98 18.6865 112.012 18.7145 112.017 18.7565L112.059 19.4386C112.519 18.8593 113.091 18.5557 113.621 18.5557H113.663V18.5603Z" fill="#676767"/>
<path d="M118.955 16.3271C119.001 16.3271 119.034 16.3599 119.034 16.4112V23.5869C119.034 23.6383 119.001 23.671 118.955 23.671H118.439C118.397 23.671 118.364 23.643 118.36 23.601L118.336 23.045C117.904 23.5449 117.304 23.8018 116.765 23.8018H116.704C115.495 23.8018 114.835 22.9516 114.835 21.5921V20.812C114.835 19.3451 115.593 18.5602 116.765 18.5602H116.825C117.299 18.5602 117.867 18.7658 118.299 19.2376V16.4112C118.299 16.3599 118.332 16.3271 118.383 16.3271H118.955V16.3271ZM116.895 19.1769C116.049 19.1769 115.584 19.7328 115.584 20.7793V21.5828C115.584 22.6293 116.044 23.1852 116.895 23.1852H116.923C117.369 23.1852 117.839 22.9796 118.299 22.4798V19.8916C117.839 19.3918 117.36 19.1815 116.923 19.1815H116.895V19.1769Z" fill="#676767"/>
<path d="M121.173 16.9629C121.228 16.9629 121.261 16.9956 121.261 17.0517V17.7337C121.261 17.7898 121.228 17.8225 121.173 17.8225H120.517C120.461 17.8225 120.429 17.7898 120.429 17.7337V17.0517C120.429 16.9956 120.461 16.9629 120.517 16.9629H121.173ZM121.131 18.6867C121.182 18.6867 121.215 18.7194 121.215 18.7708V23.5873C121.215 23.6387 121.182 23.6714 121.131 23.6714H120.559C120.508 23.6714 120.475 23.6387 120.475 23.5873V18.7708C120.475 18.7194 120.508 18.6867 120.559 18.6867H121.131Z" fill="#676767"/>
<path d="M125.059 18.5605C126.157 18.5605 126.682 19.2052 126.682 20.3311V23.592C126.682 23.6433 126.65 23.676 126.599 23.676H126.027C125.975 23.676 125.943 23.6433 125.943 23.592V20.4573C125.943 19.6444 125.65 19.1819 124.813 19.1819H124.785C124.325 19.1819 123.799 19.4388 123.358 19.8219V23.592C123.358 23.6433 123.325 23.676 123.274 23.676H122.702C122.651 23.676 122.618 23.6433 122.618 23.592V18.7754C122.618 18.7287 122.651 18.6914 122.702 18.6914H123.218C123.26 18.6914 123.292 18.7194 123.297 18.7614L123.33 19.2987C123.846 18.8455 124.455 18.5652 124.994 18.5652H125.064L125.059 18.5605Z" fill="#676767"/>
<path d="M132.104 19.2566V23.4892C132.104 24.8346 131.239 25.4653 130.105 25.4653H130.049C129.412 25.4653 128.849 25.2878 128.44 25.1056C128.389 25.0869 128.361 25.0402 128.361 24.9748V24.531C128.361 24.4796 128.403 24.4609 128.445 24.4749C128.905 24.6945 129.407 24.8673 129.919 24.8673H129.961C130.905 24.8673 131.365 24.4142 131.365 23.4938V22.9706C130.905 23.4658 130.323 23.6901 129.83 23.6901H129.77C128.566 23.6901 127.947 22.8398 127.947 21.4803V20.8123C127.947 19.3454 128.738 18.5605 129.956 18.5605H130.03C130.751 18.5605 131.621 18.8782 132.025 19.1258C132.072 19.1585 132.1 19.2099 132.1 19.2566M129.984 23.0734C130.43 23.0734 130.9 22.8678 131.36 22.368V19.5743C130.979 19.3547 130.472 19.1725 130.03 19.1725H129.989C129.179 19.1725 128.691 19.7191 128.691 20.7656V21.4757C128.691 22.5221 129.114 23.0734 129.956 23.0734H129.984Z" fill="#676767"/>
<path d="M136.457 17.4674C136.517 17.4533 136.573 17.4814 136.573 17.5514V18.6867H137.94C137.987 18.6867 138.024 18.7194 138.024 18.7708V19.2052C138.024 19.2566 137.991 19.2893 137.94 19.2893H136.573V22.452C136.573 22.9472 136.759 23.1808 137.205 23.1808H137.247C137.447 23.1808 137.647 23.1201 137.926 23.0173C137.977 22.9986 138.024 23.036 138.024 23.0874V23.4798C138.024 23.5312 138.005 23.5686 137.949 23.5919C137.698 23.7087 137.364 23.7975 137.117 23.7975H137.043C136.243 23.7975 135.838 23.3583 135.838 22.5548V19.2893H135.229C135.178 19.2893 135.146 19.2566 135.146 19.2052V18.8221C135.146 18.7754 135.178 18.7521 135.229 18.7381L135.838 18.682V17.715C135.838 17.6495 135.862 17.5982 135.922 17.5841L136.457 17.458V17.4674Z" fill="#676767"/>
<path d="M141.521 18.5604C142.618 18.5604 143.167 19.2051 143.167 20.331V23.5918C143.167 23.6432 143.134 23.6759 143.083 23.6759H142.511C142.46 23.6759 142.428 23.6432 142.428 23.5918V20.4571C142.428 19.6443 142.116 19.1818 141.279 19.1818H141.251C140.786 19.1818 140.256 19.4434 139.81 19.8311V23.5918C139.81 23.6432 139.777 23.6759 139.726 23.6759H139.154C139.103 23.6759 139.07 23.6432 139.07 23.5918V16.4161C139.07 16.3647 139.103 16.332 139.154 16.332H139.726C139.777 16.332 139.81 16.3647 139.81 16.4161V19.2845C140.317 18.8407 140.921 18.5651 141.456 18.5651H141.525L141.521 18.5604Z" fill="#676767"/>
<path d="M146.622 18.5605C147.808 18.5605 148.552 19.3174 148.552 20.7843V21.158C148.552 21.2234 148.505 21.2748 148.435 21.2748H145.166V21.7093C145.166 22.6623 145.841 23.1949 146.733 23.1949H146.775C147.268 23.1949 147.789 23.0267 148.282 22.7978C148.319 22.7791 148.366 22.8024 148.366 22.8538V23.2976C148.366 23.3677 148.338 23.4051 148.286 23.4284C147.924 23.6153 147.226 23.8022 146.696 23.8022H146.622C145.38 23.8022 144.413 23.0407 144.413 21.6345V20.9291C144.413 19.4388 145.329 18.5605 146.51 18.5605H146.622V18.5605ZM146.524 19.1352C145.729 19.1352 145.18 19.7565 145.166 20.7889H147.854C147.863 19.6631 147.44 19.1352 146.594 19.1352H146.524Z" fill="#676767"/>
<path d="M95.347 27.1006C95.9934 27.1006 96.6304 27.2875 96.9234 27.4463C96.9885 27.479 97.035 27.521 97.035 27.6332V28.5068C97.035 28.5768 96.9652 28.6189 96.9001 28.5909C96.4258 28.376 96.0492 28.2311 95.4726 28.2311H95.4214C94.3752 28.2311 93.594 28.9599 93.594 30.2633V31.1836C93.594 32.487 94.3752 33.2158 95.4214 33.2158H95.4726C96.0724 33.2158 96.477 33.0523 96.9001 32.8561C96.9652 32.8281 97.035 32.8701 97.035 32.9402V33.8185C97.035 33.9072 97.0024 33.9586 96.9234 34.0053C96.6444 34.1642 95.9748 34.3464 95.347 34.3464H95.2168C93.6917 34.3464 92.2734 33.2625 92.2734 31.2023V30.254C92.2734 28.1938 93.6917 27.1099 95.2168 27.1099H95.347V27.1006Z" fill="#676767"/>
<path d="M100.275 29.0957C101.498 29.0957 102.53 29.8946 102.53 31.3475V32.0856C102.53 33.5385 101.498 34.3373 100.275 34.3373H100.168C98.9454 34.3373 97.9131 33.5385 97.9131 32.0856V31.3475C97.9131 29.8899 98.95 29.0957 100.168 29.0957H100.275V29.0957ZM100.187 30.0908C99.5824 30.0908 99.1593 30.5019 99.1593 31.2914V32.1416C99.1593 32.9312 99.5778 33.3423 100.187 33.3423H100.252C100.856 33.3423 101.28 32.9312 101.28 32.1416V31.2914C101.28 30.5019 100.861 30.0908 100.252 30.0908H100.187Z" fill="#676767"/>
<path d="M106.302 29.0957C107.283 29.0957 107.874 29.6983 107.874 30.7588V34.0897C107.874 34.1598 107.827 34.2065 107.762 34.2065H106.762C106.693 34.2065 106.651 34.1598 106.651 34.0897V31.0158C106.651 30.4038 106.423 30.0908 105.828 30.0908H105.786C105.461 30.0908 105.089 30.2543 104.754 30.5019V34.0897C104.754 34.1598 104.707 34.2065 104.637 34.2065H103.638C103.568 34.2065 103.521 34.1598 103.521 34.0897V29.3386C103.521 29.2686 103.568 29.2265 103.638 29.2265H104.521C104.577 29.2265 104.614 29.2592 104.628 29.3153L104.693 29.7731C105.209 29.3199 105.712 29.0957 106.204 29.0957H106.302V29.0957Z" fill="#676767"/>
<path d="M110.361 27.9177C110.445 27.8944 110.519 27.9457 110.519 28.0392V29.2211H111.71C111.78 29.2211 111.826 29.2678 111.826 29.3379V30.0714C111.826 30.1414 111.78 30.1882 111.71 30.1882H110.519V32.7576C110.519 33.164 110.682 33.3415 111.008 33.3415H111.054C111.194 33.3415 111.37 33.2902 111.705 33.1874C111.77 33.1687 111.826 33.2107 111.826 33.2761V33.9629C111.826 34.0236 111.798 34.0703 111.742 34.0984C111.436 34.2385 111.073 34.3413 110.789 34.3413H110.696C109.794 34.3413 109.297 33.8367 109.297 32.9818V30.1928H108.743C108.673 30.1928 108.627 30.1461 108.627 30.076V29.45C108.627 29.3846 108.673 29.3566 108.743 29.3332L109.297 29.2258V28.3148C109.297 28.2214 109.343 28.1513 109.427 28.1373L110.366 27.9177H110.361Z" fill="#676767"/>
<path d="M114.798 29.0957C115.974 29.0957 116.825 29.8338 116.825 31.2867V31.7632C116.825 31.866 116.746 31.9454 116.644 31.9454H113.738V32.1977C113.738 32.9732 114.268 33.361 114.975 33.361H115.021C115.472 33.361 115.965 33.2021 116.49 32.9919C116.551 32.9685 116.607 33.0059 116.607 33.076V33.8328C116.607 33.9216 116.574 33.9729 116.509 33.9963C116.184 34.1551 115.421 34.342 114.854 34.342H114.761C113.487 34.342 112.478 33.5805 112.478 32.0716V31.4783C112.478 29.9693 113.473 29.105 114.686 29.105H114.793L114.798 29.0957ZM114.705 30.0067C114.128 30.0067 113.756 30.4505 113.733 31.2166H115.677C115.691 30.3991 115.393 30.0067 114.751 30.0067H114.7H114.705Z" fill="#676767"/>
<path d="M123.646 29.0955C124.613 29.0955 125.157 29.6981 125.157 30.7586V34.0895C125.157 34.1596 125.111 34.2063 125.041 34.2063H124.041C123.971 34.2063 123.925 34.1596 123.925 34.0895V31.0156C123.925 30.4036 123.748 30.0906 123.167 30.0906H123.125C122.795 30.0906 122.409 30.2634 122.06 30.5297C122.088 30.6652 122.098 30.8847 122.098 31.0156V34.0942C122.098 34.1643 122.051 34.211 121.981 34.211H120.982C120.912 34.211 120.865 34.1643 120.865 34.0942V31.0202C120.865 30.4082 120.689 30.0952 120.107 30.0952H120.07C119.749 30.0952 119.373 30.2587 119.038 30.5063V34.0942C119.038 34.1643 118.991 34.211 118.922 34.211H117.922C117.852 34.211 117.806 34.1643 117.806 34.0942V29.3431C117.806 29.273 117.852 29.2263 117.922 29.2263H118.805C118.861 29.2263 118.898 29.259 118.912 29.3151L118.977 29.7729C119.494 29.3197 119.996 29.0955 120.489 29.0955H120.586C121.242 29.0955 121.698 29.3711 121.925 29.871C122.497 29.3431 123.028 29.0908 123.548 29.0908H123.646V29.0955Z" fill="#676767"/>
<path d="M128.919 29.0957C130.114 29.0957 130.742 30.016 130.742 31.2634V32.0856C130.742 33.5385 129.914 34.3373 128.793 34.3373H128.71C128.287 34.3373 127.845 34.1878 127.501 33.8515V35.7575C127.501 35.8276 127.454 35.8743 127.385 35.8743H126.385C126.315 35.8743 126.269 35.8276 126.269 35.7575V29.3433C126.269 29.2732 126.315 29.2265 126.385 29.2265H127.268C127.324 29.2265 127.361 29.2592 127.375 29.3153L127.422 29.7404C127.77 29.348 128.282 29.0957 128.831 29.0957H128.914H128.919ZM128.505 30.0908C128.189 30.0908 127.84 30.2263 127.501 30.5346V32.8798C127.85 33.1974 128.208 33.3376 128.505 33.3376H128.542C129.142 33.3376 129.486 32.9265 129.486 32.137V31.2867C129.486 30.4972 129.142 30.0861 128.542 30.0861H128.505V30.0908Z" fill="#676767"/>
<path d="M133.992 29.0957C135.215 29.0957 136.247 29.8946 136.247 31.3475V32.0856C136.247 33.5385 135.215 34.3373 133.992 34.3373H133.885C132.662 34.3373 131.63 33.5385 131.63 32.0856V31.3475C131.63 29.8899 132.667 29.0957 133.885 29.0957H133.992V29.0957ZM133.904 30.0908C133.299 30.0908 132.876 30.5019 132.876 31.2914V32.1416C132.876 32.9312 133.295 33.3423 133.904 33.3423H133.969C134.573 33.3423 134.996 32.9312 134.996 32.1416V31.2914C134.996 30.5019 134.578 30.0908 133.969 30.0908H133.904Z" fill="#676767"/>
<path d="M139.893 29.0957C139.982 29.0957 140.079 29.105 140.131 29.1144C140.191 29.1237 140.219 29.1751 140.219 29.2312V30.1515C140.219 30.2356 140.154 30.2776 140.07 30.2683C140 30.259 139.824 30.2496 139.712 30.2496H139.652C139.275 30.2496 138.833 30.4131 138.471 30.7308V34.0944C138.471 34.1645 138.424 34.2112 138.354 34.2112H137.355C137.285 34.2112 137.238 34.1645 137.238 34.0944V29.3433C137.238 29.2732 137.285 29.2312 137.355 29.2312H138.238C138.294 29.2312 138.331 29.2639 138.345 29.3199L138.429 29.9132C138.824 29.39 139.359 29.1004 139.847 29.1004H139.889L139.893 29.0957Z" fill="#676767"/>
<path d="M142.985 29.0953C144.059 29.0953 144.84 29.5438 144.854 30.9826V34.0893C144.854 34.1594 144.808 34.2061 144.738 34.2061H143.855C143.799 34.2061 143.762 34.1734 143.748 34.1173L143.683 33.6362C143.343 33.9912 142.79 34.3369 142.199 34.3369H142.148C141.199 34.3369 140.697 33.6875 140.697 32.9167V32.8233C140.697 31.8189 141.362 31.305 142.841 31.2069L143.622 31.1602V31.02C143.622 30.3193 143.366 30.0623 142.706 30.0623H142.678C142.227 30.0623 141.72 30.2212 141.195 30.394C141.134 30.408 141.079 30.38 141.079 30.3099V29.5718C141.079 29.483 141.111 29.427 141.176 29.4083C141.613 29.2541 142.278 29.0859 142.929 29.0859H142.976L142.985 29.0953ZM142.976 31.9217C142.255 31.9403 141.934 32.2066 141.934 32.6785V32.7158C141.934 33.1223 142.222 33.3886 142.669 33.3886H142.715C143.022 33.3886 143.311 33.2531 143.631 32.9354V31.9076L142.98 31.9217H142.976Z" fill="#676767"/>
<path d="M148.598 29.0957C148.686 29.0957 148.783 29.105 148.835 29.1144C148.895 29.1237 148.923 29.1751 148.923 29.2312V30.1515C148.923 30.2356 148.858 30.2776 148.774 30.2683C148.704 30.259 148.528 30.2496 148.416 30.2496H148.356C147.979 30.2496 147.537 30.4131 147.175 30.7308V34.0944C147.175 34.1645 147.128 34.2112 147.058 34.2112H146.059C145.989 34.2112 145.942 34.1645 145.942 34.0944V29.3433C145.942 29.2732 145.989 29.2312 146.059 29.2312H146.942C146.998 29.2312 147.035 29.2639 147.049 29.3199L147.133 29.9132C147.528 29.39 148.063 29.1004 148.551 29.1004H148.593L148.598 29.0957Z" fill="#676767"/>
<path d="M154.224 29.2264C154.312 29.2264 154.368 29.2964 154.34 29.3852L152.596 34.482C152.303 35.3463 151.876 35.9956 150.904 35.9956H150.829C150.49 35.9956 150.058 35.8882 149.946 35.8368C149.89 35.8181 149.862 35.762 149.862 35.7013V34.9632C149.862 34.8978 149.918 34.8557 149.983 34.8744C150.257 34.9679 150.467 35.0192 150.685 35.0192H150.713C151.034 35.0192 151.206 34.8651 151.35 34.4773L151.448 34.2017H151.29C151.234 34.2017 151.187 34.1643 151.169 34.1083L149.56 29.3805C149.532 29.2918 149.588 29.2217 149.676 29.2217H150.681C150.736 29.2217 150.783 29.2591 150.801 29.3151L151.508 31.3847L151.936 33.1693H151.959L152.387 31.3847L153.099 29.3151C153.117 29.2591 153.164 29.2217 153.219 29.2217H154.228L154.224 29.2264Z" fill="#676767"/>
<path d="M160.841 27.2314C160.916 27.2314 160.958 27.2828 160.976 27.3576L162.934 34.0895C162.948 34.1596 162.897 34.2063 162.827 34.2063H161.753C161.678 34.2063 161.636 34.1595 161.618 34.0801L161.13 32.4217H158.879L158.391 34.0801C158.372 34.1549 158.33 34.2063 158.256 34.2063H157.182C157.112 34.2063 157.056 34.1596 157.075 34.0895L159.033 27.3576C159.051 27.2828 159.088 27.2361 159.167 27.2314H160.841V27.2314ZM159.4 30.4829L159.163 31.2958H160.851L160.614 30.4829L160.037 28.2872H159.976L159.405 30.4829H159.4Z" fill="#676767"/>
<path d="M166.51 29.0957C166.598 29.0957 166.696 29.105 166.747 29.1144C166.807 29.1237 166.835 29.1751 166.835 29.2312V30.1515C166.835 30.2356 166.775 30.2776 166.686 30.2683C166.612 30.259 166.44 30.2496 166.328 30.2496H166.268C165.891 30.2496 165.449 30.4131 165.087 30.7308V34.0944C165.087 34.1645 165.04 34.2112 164.97 34.2112H163.971C163.901 34.2112 163.854 34.1645 163.854 34.0944V29.3433C163.854 29.2732 163.901 29.2312 163.971 29.2312H164.854C164.91 29.2312 164.947 29.2639 164.961 29.3199L165.045 29.9132C165.44 29.39 165.975 29.1004 166.463 29.1004H166.505L166.51 29.0957Z" fill="#676767"/>
<path d="M169.197 27.9177C169.281 27.8944 169.355 27.9457 169.355 28.0392V29.2211H170.546C170.616 29.2211 170.662 29.2678 170.662 29.3379V30.0714C170.662 30.1414 170.616 30.1882 170.546 30.1882H169.355V32.7576C169.355 33.164 169.518 33.3415 169.844 33.3415H169.89C170.03 33.3415 170.206 33.2902 170.541 33.1874C170.606 33.1687 170.662 33.2107 170.662 33.2761V33.9629C170.662 34.0236 170.634 34.0703 170.578 34.0984C170.271 34.2385 169.909 34.3413 169.625 34.3413H169.532C168.63 34.3413 168.132 33.8367 168.132 32.9818V30.1928H167.579C167.509 30.1928 167.463 30.1461 167.463 30.076V29.45C167.463 29.3846 167.509 29.3566 167.579 29.3332L168.132 29.2258V28.3148C168.132 28.2214 168.179 28.1513 168.263 28.1373L169.202 27.9177H169.197Z" fill="#676767"/>
<path d="M173.257 29.0957C173.759 29.0957 174.349 29.2312 174.61 29.3667C174.675 29.3947 174.707 29.4414 174.707 29.5302V30.2449C174.707 30.315 174.652 30.3477 174.591 30.329C174.117 30.1141 173.749 29.9787 173.359 29.9787H173.322C172.899 29.9787 172.559 30.1608 172.559 30.4972V30.5346C172.559 30.8896 172.894 30.969 173.233 31.0858L173.55 31.1933C174.41 31.4829 174.991 31.8006 174.991 32.7583V32.8237C174.991 33.8094 174.103 34.3373 173.071 34.3373H172.992C172.531 34.3373 171.801 34.2019 171.522 34.0524C171.457 34.0243 171.425 33.9776 171.425 33.8889V33.1741C171.425 33.104 171.48 33.0713 171.541 33.09C172.034 33.3049 172.466 33.4544 172.894 33.4544H172.959C173.443 33.4544 173.768 33.2535 173.768 32.8938V32.8564C173.768 32.4967 173.466 32.3939 173.117 32.2818L172.801 32.1743C172.117 31.9454 171.341 31.6418 171.341 30.6607V30.6047C171.341 29.5909 172.252 29.0957 173.15 29.0957H173.252H173.257Z" fill="#676767"/>
</g>
<defs>
<clipPath id="clip0_1131_47629">
<rect width="175" height="36" fill="white"/>
</clipPath>
</defs>
</svg>
